<?xml version="1.0" encoding="UTF-8"?>
<svg id="Layer_1" data-name="Layer 1" xmlns="http://www.w3.org/2000/svg" version="1.1" viewBox="0 0 279.7 55.32">
  <defs>
    <style>
      .cls-1 {
        fill: #414042;
      }

      .cls-1, .cls-2 {
        stroke-width: 0px;
      }

      .cls-2 {
        fill: #9a9bff;
      }
    </style>
  </defs>
  <g>
    <path class="cls-1" d="M106.1,28.72c0-5.31,2.98-10.19,8.55-10.19s8.55,4.88,8.55,10.19-2.98,10.19-8.55,10.19-8.55-4.88-8.55-10.19h0ZM104.46,28.72c0,6.3,3.67,11.62,10.19,11.62s10.19-5.32,10.19-11.62-3.67-11.61-10.19-11.61-10.19,5.31-10.19,11.61h0Z"/>
    <polygon class="cls-1" points="100.27 39.81 100.27 17.62 98.63 17.62 98.63 39.81 100.27 39.81 100.27 39.81"/>
    <path class="cls-1" d="M72.44,17.62h-1.64v12c0,5.44-3.02,9.28-7.99,9.28-6.04,0-6.3-4.96-6.3-7.25v-14.03h-1.64v13.73c0,2.72.09,8.99,7.9,8.99,3.45,0,6.82-1.95,7.94-5.27h.09v4.75h1.64v-22.19h0Z"/>
    <polygon class="cls-1" points="35.27 18.88 43.01 18.88 43.25 18.88 43.25 19.12 43.25 39.88 44.94 39.88 44.94 19.12 44.94 18.88 45.19 18.88 52.92 18.88 52.92 17.51 35.27 17.51 35.27 18.88 35.27 18.88"/>
    <path class="cls-1" d="M16.22,32.43c.13,5.18,3.93,7.91,8.98,7.91,3.89,0,8.68-1.35,8.68-6.14s-3.45-5.7-7.86-6.52c-3.58-.78-7.38-1.34-7.38-4.88,0-3.15,3.37-4.28,6.39-4.28,3.71,0,6.52,1.64,6.56,5.65h1.64c0-5.05-3.5-7.08-8.2-7.08-3.76,0-8.03,1.29-8.03,5.7s3.8,5.52,7.64,6.3c3.8.78,7.6,1.34,7.6,5.09s-4.14,4.71-7.04,4.71c-4.01,0-7.08-2.37-7.34-6.48h-1.64Z"/>
    <path class="cls-1" d="M79.09,18.87h4.61c3.33-.01,5.72.69,7.29,2.28,1.57,1.58,2.3,4.03,2.3,7.48s-.73,5.9-2.3,7.48c-1.57,1.59-3.97,2.29-7.29,2.27h0s-4.61,0-4.61,0h-.24v-19.51h.24ZM77.17,39.75h7.62c3.37-.08,5.93-1.04,7.63-2.9,1.69-1.84,2.56-4.58,2.56-8.22s-.87-6.38-2.56-8.22c-1.71-1.86-4.27-2.82-7.63-2.9h-7.62v22.24h0Z"/>
  </g>
  <g>
    <path class="cls-1" d="M153.24,18.87h4.61c3.33-.01,5.72.69,7.29,2.28,1.57,1.58,2.3,4.03,2.3,7.48s-.73,5.9-2.3,7.48c-1.57,1.59-3.97,2.29-7.29,2.27h0s-4.61,0-4.61,0h-.24v-19.51h.24ZM151.31,39.75h7.62c3.37-.08,5.93-1.04,7.63-2.9,1.69-1.84,2.56-4.58,2.56-8.22s-.87-6.38-2.56-8.22c-1.71-1.86-4.27-2.82-7.63-2.9h-7.62v22.24h0Z"/>
    <path class="cls-1" d="M241.53,28.76h-9.12v1.35h7.7v.24s0,.23,0,.23h0c0,2.36-.73,4.41-2.07,5.89-1.35,1.48-3.31,2.37-5.78,2.42h-.21s0,0,0,0c-6.16,0-8.76-5.13-8.76-10.19,0-2.73.76-5.49,2.44-7.44,1.42-1.66,3.5-2.75,6.32-2.75,2.03,0,3.72.67,4.98,1.65h0c1.42,1.11,2.3,2.62,2.52,4.03h1.65c-.43-2.2-1.48-3.88-2.95-5.06-1.64-1.3-3.8-1.97-6.2-1.97-6.97,0-10.43,5.49-10.43,11.54h0c0,3.22.98,6.27,2.93,8.43,1.73,1.91,4.23,3.12,7.5,3.12,1.67,0,3.28-.36,4.64-1.17,1.23-.72,2.26-1.8,2.96-3.29l.07-.14h.15s.06,0,.06,0h.23l.02.22.27,3.89h1.09v-11.01h0Z"/>
    <path class="cls-1" d="M191.02,28.93c.3-6.35-2.81-11.83-9.76-11.83s-9.89,5.91-9.8,12c-.09,6.13,3.32,11.23,9.8,11.23,5.27,0,8.72-2.85,9.58-8.04h-1.64c-.78,4.1-3.76,6.61-7.94,6.61-5.48,0-8.25-4.75-8.16-9.97h17.92ZM173.11,27.51c.35-4.41,3.24-8.98,8.16-8.98s8.03,4.32,8.12,8.98h-16.28ZM194,32.43c.13,5.18,3.93,7.91,8.98,7.91,3.89,0,8.68-1.35,8.68-6.14s-3.45-5.7-7.86-6.52c-3.58-.78-7.38-1.34-7.38-4.88,0-3.15,3.37-4.28,6.39-4.28,3.71,0,6.52,1.64,6.56,5.65h1.64c0-5.05-3.5-7.08-8.2-7.08-3.76,0-8.03,1.29-8.03,5.7s3.8,5.52,7.64,6.3c3.8.78,7.6,1.34,7.6,5.09s-4.14,4.71-7.04,4.71c-4.01,0-7.08-2.37-7.34-6.48h-1.64ZM217.66,39.81v-22.19h-1.64v22.19h1.64ZM245.56,39.81h1.64v-12c0-5.44,3.02-9.28,7.99-9.28,6.04,0,6.3,4.97,6.3,7.25v14.03h1.64v-13.73c0-2.72-.09-8.98-7.9-8.98-3.45,0-6.82,1.94-7.94,5.26h-.09v-4.75h-1.64v22.19h0Z"/>
  </g>
  <path class="cls-2" d="M133.44,28.11l-7.35-10.6h7.01l3.94,5.84,3.89-5.84h6.79l-7.35,10.47,8.26,11.9h-7.01l-4.67-7.05-4.67,7.05h-6.88l8.05-11.77Z"/>
</svg>