<?xml version="1.0" encoding="UTF-8"?>
<svg id="Layer_1" data-name="Layer 1" xmlns="http://www.w3.org/2000/svg" version="1.1" viewBox="0 0 190.93 90.61">
  <defs>
    <style>
      .cls-1 {
        fill: #414042;
      }

      .cls-1, .cls-2 {
        stroke-width: 0px;
      }

      .cls-2 {
        fill: #fff;
      }
    </style>
  </defs>
  <g>
    <path class="cls-1" d="M118.31,32.14c0-5.91,3.32-11.34,9.52-11.34s9.52,5.43,9.52,11.34-3.32,11.34-9.52,11.34-9.52-5.43-9.52-11.34h0ZM116.49,32.14c0,7.02,4.09,12.94,11.34,12.94s11.34-5.92,11.34-12.94-4.09-12.93-11.34-12.93-11.34,5.91-11.34,12.93h0Z"/>
    <polygon class="cls-1" points="111.83 44.49 111.83 19.78 110 19.78 110 44.49 111.83 44.49 111.83 44.49"/>
    <path class="cls-1" d="M80.84,19.78h-1.83v13.36c0,6.06-3.36,10.33-8.89,10.33-6.73,0-7.02-5.53-7.02-8.07v-15.62h-1.83v15.28c0,3.03.1,10.01,8.8,10.01,3.84,0,7.59-2.17,8.84-5.87h.1v5.28h1.83v-24.7h0Z"/>
    <polygon class="cls-1" points="39.47 21.18 48.08 21.18 48.35 21.18 48.35 21.45 48.35 44.56 50.23 44.56 50.23 21.45 50.23 21.18 50.5 21.18 59.11 21.18 59.11 19.66 39.47 19.66 39.47 21.18 39.47 21.18"/>
    <path class="cls-1" d="M18.26,36.27c.14,5.77,4.37,8.8,10,8.8,4.33,0,9.66-1.5,9.66-6.83s-3.84-6.34-8.75-7.26c-3.99-.86-8.22-1.49-8.22-5.43,0-3.51,3.75-4.76,7.11-4.76,4.13,0,7.26,1.83,7.3,6.3h1.83c0-5.62-3.89-7.88-9.13-7.88-4.18,0-8.94,1.44-8.94,6.34s4.23,6.15,8.51,7.02c4.23.86,8.46,1.49,8.46,5.67s-4.61,5.24-7.83,5.24c-4.47,0-7.88-2.64-8.17-7.21h-1.83Z"/>
    <path class="cls-1" d="M88.24,21.17h5.14c3.7-.02,6.37.77,8.12,2.53,1.75,1.76,2.56,4.48,2.56,8.33s-.81,6.57-2.56,8.33c-1.75,1.76-4.42,2.55-8.12,2.53h0s-5.14,0-5.14,0h-.27v-21.72h.27ZM86.1,44.41h8.48c3.75-.09,6.6-1.16,8.5-3.23,1.88-2.05,2.85-5.1,2.85-9.15s-.97-7.1-2.85-9.15c-1.9-2.07-4.75-3.14-8.5-3.23h-8.48v24.76h0Z"/>
  </g>
  <g>
    <path class="cls-1" d="M44.78,50.7h5.14c3.7-.02,6.37.77,8.12,2.53,1.75,1.76,2.56,4.48,2.56,8.33s-.81,6.57-2.56,8.33c-1.75,1.76-4.41,2.55-8.12,2.53h0s-5.14,0-5.14,0h-.27v-21.72h.27ZM42.64,73.94h8.48c3.75-.09,6.6-1.16,8.5-3.23,1.88-2.05,2.85-5.1,2.85-9.15s-.97-7.1-2.85-9.15c-1.9-2.07-4.75-3.14-8.5-3.23h-8.48v24.76h0Z"/>
    <path class="cls-1" d="M141.43,61.71h-10.15v1.51h8.57v.27s0,.25,0,.25h0c0,2.63-.81,4.91-2.31,6.55-1.5,1.65-3.69,2.64-6.44,2.7h-.24s0,0,0,0c-6.85,0-9.76-5.71-9.76-11.34,0-3.04.85-6.11,2.71-8.29,1.59-1.85,3.9-3.06,7.04-3.06,2.26,0,4.14.74,5.54,1.83h0c1.58,1.23,2.56,2.91,2.81,4.48h1.84c-.48-2.44-1.65-4.32-3.29-5.63-1.82-1.45-4.23-2.19-6.9-2.19-7.76,0-11.62,6.12-11.62,12.85h0c0,3.58,1.09,6.98,3.26,9.39,1.92,2.12,4.71,3.47,8.35,3.47,1.86,0,3.65-.41,5.17-1.3,1.37-.81,2.52-2.01,3.3-3.67l.07-.15h.17s.07,0,.07,0h.25l.02.25.3,4.33h1.21v-12.26h0Z"/>
    <path class="cls-1" d="M86.85,61.9c.34-7.07-3.12-13.17-10.86-13.17s-11.01,6.58-10.91,13.36c-.1,6.82,3.7,12.5,10.91,12.5,5.86,0,9.71-3.18,10.67-8.95h-1.83c-.87,4.57-4.18,7.35-8.84,7.35-6.1,0-9.18-5.29-9.08-11.1h19.95ZM66.9,60.32c.38-4.9,3.6-10,9.08-10s8.94,4.81,9.04,10h-18.12ZM88.52,65.8c.14,5.77,4.37,8.8,10,8.8,4.33,0,9.66-1.5,9.66-6.83s-3.84-6.34-8.75-7.26c-3.99-.86-8.22-1.49-8.22-5.43,0-3.51,3.75-4.76,7.11-4.76,4.13,0,7.26,1.83,7.31,6.3h1.83c0-5.62-3.89-7.88-9.13-7.88-4.18,0-8.94,1.44-8.94,6.34s4.23,6.15,8.51,7.02c4.23.86,8.46,1.49,8.46,5.67s-4.61,5.24-7.83,5.24c-4.47,0-7.88-2.64-8.17-7.21h-1.83ZM114.85,74.01v-24.7h-1.83v24.7h1.83ZM145.92,74.01h1.83v-13.36c0-6.06,3.37-10.33,8.89-10.33,6.73,0,7.02,5.53,7.02,8.08v15.62h1.83v-15.28c0-3.03-.1-10-8.8-10-3.85,0-7.59,2.16-8.84,5.86h-.1v-5.28h-1.83v24.7h0Z"/>
  </g>
  <path class="cls-2" d="M149.01,31.97l-8.19-11.8h7.8l4.38,6.5,4.33-6.5h7.56l-8.19,11.65,9.2,13.24h-7.8l-5.2-7.85-5.2,7.85h-7.66l8.96-13.1Z"/>
</svg>