<?xml version="1.0" encoding="utf-8"?>
<!-- Generator: Adobe Illustrator 27.8.0, SVG Export Plug-In . SVG Version: 6.00 Build 0)  -->
<svg version="1.1" id="Layer_1" xmlns="http://www.w3.org/2000/svg" xmlns:xlink="http://www.w3.org/1999/xlink" x="0px" y="0px"
	 viewBox="0 0 1263.84 252.77" style="enable-background:new 0 0 1263.84 252.77;" xml:space="preserve">
<style type="text/css">
	.st0{fill:none;}
	.st1{clip-path:url(#SVGID_00000068635656662115530470000015953154528720062100_);fill:#999CFF;}
	.st2{clip-path:url(#SVGID_00000068635656662115530470000015953154528720062100_);fill:#B2B5FF;}
	.st3{clip-path:url(#SVGID_00000068635656662115530470000015953154528720062100_);fill:#A8ABFF;}
	.st4{clip-path:url(#SVGID_00000068635656662115530470000015953154528720062100_);fill:#A3A5FF;}
</style>
<path class="st0" d="M209.05-455.18c-69.8,0-126.38,56.58-126.38,126.39c0,69.8,56.58,126.38,126.38,126.38h928.41
	c69.8,0,126.38-56.58,126.38-126.38c0-69.8-56.58-126.39-126.38-126.39H209.05z"/>
<g>
	<defs>
		<path id="SVGID_1_" d="M1137.46,0c69.8,0,126.38,56.58,126.38,126.38s-56.58,126.38-126.38,126.38H126.38
			C56.58,252.77,0,196.18,0,126.38S56.58,0,126.38,0H1137.46z"/>
	</defs>
	<clipPath id="SVGID_00000008140635908305844520000014786018987944904889_">
		<use xlink:href="#SVGID_1_"  style="overflow:visible;"/>
	</clipPath>
	
		<rect x="505.54" y="0" style="clip-path:url(#SVGID_00000008140635908305844520000014786018987944904889_);fill:#999CFF;" width="758.3" height="252.77"/>
	<polygon style="clip-path:url(#SVGID_00000008140635908305844520000014786018987944904889_);fill:#B2B5FF;" points="758.31,0 
		505.54,0 631.92,126.38 	"/>
	<polygon style="clip-path:url(#SVGID_00000008140635908305844520000014786018987944904889_);fill:#999CFF;" points="758.31,252.77 
		758.31,0 631.92,126.38 	"/>
	<polygon style="clip-path:url(#SVGID_00000008140635908305844520000014786018987944904889_);fill:#A8ABFF;" points="505.54,126.38 
		505.54,0 758.31,252.77 631.92,252.77 	"/>
	<polygon style="clip-path:url(#SVGID_00000008140635908305844520000014786018987944904889_);fill:#999CFF;" points="505.54,252.77 
		505.54,126.38 631.92,252.77 	"/>
	<polygon style="clip-path:url(#SVGID_00000008140635908305844520000014786018987944904889_);fill:#999CFF;" points="758.31,0 
		758.31,252.77 884.69,126.39 	"/>
	<polygon style="clip-path:url(#SVGID_00000008140635908305844520000014786018987944904889_);fill:#A3A5FF;" points="1011.07,0 
		758.31,0 884.69,126.39 	"/>
	<polygon style="clip-path:url(#SVGID_00000008140635908305844520000014786018987944904889_);fill:#B2B5FF;" points="884.69,252.77 
		758.31,252.77 1011.07,0 1011.07,126.39 	"/>
	<polygon style="clip-path:url(#SVGID_00000008140635908305844520000014786018987944904889_);fill:#999CFF;" points="
		1011.07,252.77 884.69,252.77 1011.07,126.39 	"/>
	<polygon style="clip-path:url(#SVGID_00000008140635908305844520000014786018987944904889_);fill:#999CFF;" points="252.77,0 0,0 
		126.38,126.39 	"/>
	<polygon style="clip-path:url(#SVGID_00000008140635908305844520000014786018987944904889_);fill:#A3A5FF;" points="252.77,252.77 
		252.77,0 126.38,126.39 	"/>
	<polygon style="clip-path:url(#SVGID_00000008140635908305844520000014786018987944904889_);fill:#B2B5FF;" points="0,126.39 0,0 
		252.77,252.77 126.38,252.77 	"/>
	<polygon style="clip-path:url(#SVGID_00000008140635908305844520000014786018987944904889_);fill:#999CFF;" points="0,252.77 
		0,126.39 126.38,252.77 	"/>
	<polygon style="clip-path:url(#SVGID_00000008140635908305844520000014786018987944904889_);fill:#A8ABFF;" points="1011.07,0 
		1011.07,252.77 1137.46,126.39 	"/>
	<polygon style="clip-path:url(#SVGID_00000008140635908305844520000014786018987944904889_);fill:#999CFF;" points="1263.84,0 
		1011.07,0 1137.46,126.39 	"/>
	<polygon style="clip-path:url(#SVGID_00000008140635908305844520000014786018987944904889_);fill:#A3A5FF;" points="
		1137.46,252.77 1011.07,252.77 1263.84,0 1263.84,126.39 	"/>
	<polygon style="clip-path:url(#SVGID_00000008140635908305844520000014786018987944904889_);fill:#999CFF;" points="
		1263.84,252.77 1137.46,252.77 1263.84,126.39 	"/>
	<polygon style="clip-path:url(#SVGID_00000008140635908305844520000014786018987944904889_);fill:#A8ABFF;" points="505.54,0 
		252.77,0 379.15,126.39 	"/>
	<polygon style="clip-path:url(#SVGID_00000008140635908305844520000014786018987944904889_);fill:#999CFF;" points="505.54,252.77 
		505.54,0 379.15,126.39 	"/>
	<polygon style="clip-path:url(#SVGID_00000008140635908305844520000014786018987944904889_);fill:#A3A5FF;" points="252.77,126.39 
		252.77,0 505.54,252.77 379.15,252.77 	"/>
	<polygon style="clip-path:url(#SVGID_00000008140635908305844520000014786018987944904889_);fill:#999CFF;" points="252.77,252.77 
		252.77,126.39 379.15,252.77 	"/>
</g>
</svg>
