<?xml version="1.0" encoding="utf-8"?>
<!-- Generator: Adobe Illustrator 27.8.0, SVG Export Plug-In . SVG Version: 6.00 Build 0)  -->
<svg version="1.1" id="Layer_1" xmlns="http://www.w3.org/2000/svg" xmlns:xlink="http://www.w3.org/1999/xlink" x="0px" y="0px"
	 viewBox="0 0 1263.84 210.64" style="enable-background:new 0 0 1263.84 210.64;" xml:space="preserve">
<style type="text/css">
	.st0{fill:none;}
	.st1{fill:#999CFF;}
	.st2{fill:#B2B5FF;}
	.st3{fill:#A8ABFF;}
	.st4{fill:#A3A5FF;}
</style>
<path class="st0" d="M209.05-476.25c-69.8,0-126.38,56.58-126.38,126.38c0,69.8,56.58,126.38,126.38,126.38h928.41
	c69.8,0,126.38-56.58,126.38-126.38c0-69.8-56.58-126.38-126.38-126.38H209.05z"/>
<rect y="0" class="st1" width="1262.69" height="210.64"/>
<polygon class="st2" points="0,0 105.32,105.32 210.64,0 "/>
<polygon class="st1" points="210.64,0 105.32,105.32 210.64,210.64 "/>
<polygon class="st3" points="0,0 0,105.32 105.32,210.64 210.64,210.64 "/>
<polygon class="st1" points="0,210.64 105.32,210.64 0,105.32 "/>
<polygon class="st1" points="210.64,210.64 421.28,210.64 315.96,105.32 "/>
<polygon class="st4" points="210.64,0 210.64,210.64 315.96,105.32 "/>
<polygon class="st2" points="210.64,0 421.28,210.64 421.28,105.32 315.96,0 "/>
<polygon class="st1" points="315.96,0 421.28,105.32 421.28,0 "/>
<polygon class="st3" points="421.28,0 421.28,210.64 526.6,105.32 "/>
<polygon class="st1" points="421.28,0 526.6,105.32 631.92,0 "/>
<polygon class="st4" points="631.92,0 421.28,210.64 526.6,210.64 631.92,105.32 "/>
<polygon class="st1" points="526.6,210.64 631.92,210.64 631.92,105.32 "/>
<polygon class="st2" points="1053.2,0 947.88,105.32 1053.2,210.64 "/>
<polygon class="st1" points="842.56,0 947.88,105.32 1053.2,0 "/>
<polygon class="st3" points="842.56,0 842.56,105.32 947.88,210.64 1053.2,210.64 "/>
<polygon class="st1" points="842.56,210.64 947.88,210.64 842.56,105.32 "/>
<polygon class="st1" points="631.92,0 631.92,210.64 737.24,105.32 "/>
<polygon class="st4" points="631.92,210.64 842.56,210.64 737.24,105.32 "/>
<polygon class="st2" points="631.92,0 842.56,210.64 842.56,105.32 737.24,0 "/>
<polygon class="st1" points="737.24,0 842.56,105.32 842.56,0 "/>
<polygon class="st3" points="1053.2,0 1053.2,210.64 1158.52,105.32 "/>
<polygon class="st1" points="1053.2,210.64 1263.84,210.64 1158.52,105.32 "/>
<polygon class="st4" points="1053.2,0 1263.84,210.64 1263.84,105.32 1158.52,0 "/>
<polygon class="st1" points="1158.52,0 1263.84,105.32 1263.84,0 "/>
</svg>
